# xmcd
#
# Track frame offsets:
#	150
#	4880
#	22605
#	26562
#	41132
#	59112
#	61762
#	78267
#	97495
#	101487
#	119892
#	133632
#	148237
#	161502
#	164335
#	179112
#	195187
#	212847
#	230190
#	232995
#	255905
#	278195
#
# Disc length: 3717 seconds
#
# Revision: 1
# Processed by: cddbd v1.5.1PL0 Copyright (c) Steve Scherf et al.
# Submitted via: CDex 1.50Beta5
#
DISCID=3f0e8316
DTITLE=ラシ - にっぽんの歌　こころの歌
DYEAR=1900
DGENRE=World
TTITLE0=ラシ
TTITLE1=津軽のふるさと
TTITLE2=おはなし　村田 昭
TTITLE3=黄色いさくらんぼ
TTITLE4=星空に両手を
TTITLE5=おはなし　村田 昭
TTITLE6=智恵子抄
TTITLE7=絶唱
TTITLE8=おはなし　村田 昭
TTITLE9=今は幸せかい
TTITLE10=ブルーライトヨコハマ
TTITLE11=人形の家
TTITLE12=白い蝶のサンバ
TTITLE13=おはなし　村田 昭
TTITLE14=愛は傷きやすく
TTITLE15=喝采
TTITLE16=ふたりの大阪
TTITLE17=人生いろいろ
TTITLE18=おはなし　村田 昭
TTITLE19=愛燦燦
TTITLE20=川の流れのように
TTITLE21=おはなし　村田 昭
EXTD=
EXTT0=
EXTT1=
EXTT2=
EXTT3=
EXTT4=
EXTT5=
EXTT6=
EXTT7=
EXTT8=
EXTT9=
EXTT10=
EXTT11=
EXTT12=
EXTT13=
EXTT14=
EXTT15=
EXTT16=
EXTT17=
EXTT18=
EXTT19=
EXTT20=
EXTT21=
PLAYORDER=
